<svg xmlns="http://www.w3.org/2000/svg" viewBox="0 0 843.89 86.7"><defs><style>.cls-1{fill:#d00059;}.cls-2,.cls-3{fill:#fff;}.cls-3,.cls-4{fill-rule:evenodd;}.cls-4{fill:#db8135;}</style></defs><g id="Camada_2" data-name="Camada 2"><g id="Camada_1-2" data-name="Camada 1"><path class="cls-1" d="M518.83,32.06c-1.39,3.36-2.76,6.67-4.17,10.06a.37.37,0,0,1-.47.2l-10.62-4.4a.36.36,0,0,0-.47.46C504.58,42,506,45.47,507.42,49a.35.35,0,0,1-.19.47l-5,2.09L467.28,16.63q1.05-2.55,2.12-5.11a.35.35,0,0,1,.47-.19l10.6,4.43a.37.37,0,0,0,.48-.48c-1.51-3.6-2.95-7.06-4.42-10.6a.36.36,0,0,1,.2-.47l10-4.18a.37.37,0,0,1,.48.19l4.43,10.6a.36.36,0,0,0,.67,0c1.48-3.6,2.89-7.06,4.34-10.59a.37.37,0,0,1,.47-.2l10.06,4.18a.37.37,0,0,1,.2.47l-4.33,10.6a.37.37,0,0,0,.47.48l10.62-4.43a.36.36,0,0,1,.47.19c1.39,3.36,2.77,6.66,4.17,10.06a.36.36,0,0,1-.19.47L508,26.5a.37.37,0,0,0,0,.67l10.61,4.42A.36.36,0,0,1,518.83,32.06Z"/><path class="cls-2" d="M504.65,69.73l-8.72,8.72a3.88,3.88,0,0,1-5.48,0h0L458.36,46.36h0a3.87,3.87,0,0,0-5.48,0L420.79,78.45a3.87,3.87,0,0,1-5.47,0l-8.73-8.72,0-.06a3.87,3.87,0,0,1,0-5.35l.06-.07,13-13h0L436.64,34.2,455.5,15.35l.12.12.12-.12,48.91,48.9A3.88,3.88,0,0,1,504.65,69.73Z"/><path class="cls-2" d="M436.64,25.23V52H419.59V25.23A6.18,6.18,0,0,1,425.77,19h4.69a6.19,6.19,0,0,1,6.07,5A5.66,5.66,0,0,1,436.64,25.23Z"/><path class="cls-2" d="M525.54,57l15.9-43.64a7.74,7.74,0,0,1,7.27-5.09h5.86a7.74,7.74,0,0,1,7.28,5.1L577.68,57H561.81l-2.72-8.7H543.71L541,57ZM546.7,36.71H556l-4.59-13.92Z"/><path class="cls-2" d="M581.92,57V6.92h7.71a6.22,6.22,0,0,1,6.22,6.21V57Z"/><path class="cls-2" d="M612.76,57l-12.32-36.2h14.83L621.53,45h-1.32l6-24.15h14.48L629.05,57Z"/><path class="cls-2" d="M662.74,58.08a21.3,21.3,0,0,1-10.67-2.61,19.26,19.26,0,0,1-7.2-7,18.65,18.65,0,0,1-1.12-16.78A19.07,19.07,0,0,1,648,25.61a20.3,20.3,0,0,1,6.49-4.25,23,23,0,0,1,18.95,1.05,19.26,19.26,0,0,1,7.2,7,18.33,18.33,0,0,1,2.59,9.57,18,18,0,0,1-1.48,7.2,19,19,0,0,1-4.21,6.13A20.41,20.41,0,0,1,671,56.51,21.17,21.17,0,0,1,662.74,58.08Zm0-11.83a7.09,7.09,0,0,0,3.53-.89,6.47,6.47,0,0,0,2.51-2.52,7.87,7.87,0,0,0,.92-3.9,8,8,0,0,0-.9-3.9,6.42,6.42,0,0,0-2.49-2.52,7.61,7.61,0,0,0-7.14,0A6.42,6.42,0,0,0,656.68,35a8,8,0,0,0-.9,3.9,7.87,7.87,0,0,0,.92,3.9,6.47,6.47,0,0,0,2.51,2.52A7.09,7.09,0,0,0,662.74,46.25Z"/><path class="cls-2" d="M689.19,57V29.93a9.09,9.09,0,0,1,9.09-9.09h4.83V24.6a8.5,8.5,0,0,1,3.9-3.67,12.93,12.93,0,0,1,5.6-1.2,13.94,13.94,0,0,1,2.21.15l1.83.33-1.57,14.27a15.3,15.3,0,0,0-2.76-.81,14.82,14.82,0,0,0-2.94-.3,6.85,6.85,0,0,0-4.49,1.46,5.61,5.61,0,0,0-1.78,4.6V57Z"/><path class="cls-2" d="M731.79,58.08a14.47,14.47,0,0,1-6.37-1.39,11.36,11.36,0,0,1-4.63-4,11.24,11.24,0,0,1-1.74-6.35,10.25,10.25,0,0,1,1.58-5.68,11.61,11.61,0,0,1,4.69-4A23.51,23.51,0,0,1,733,34.55a53.29,53.29,0,0,1,10.56-.07l.07,8.29a28.13,28.13,0,0,0-4.52-.65,16.55,16.55,0,0,0-3.83.19,6,6,0,0,0-2.65,1.1,2.55,2.55,0,0,0-1,2.11,2.3,2.3,0,0,0,1.15,2.12,5.73,5.73,0,0,0,3,.7,7.76,7.76,0,0,0,3-.56,4.72,4.72,0,0,0,2.14-1.72,5.17,5.17,0,0,0,.8-3V35.67a6.5,6.5,0,0,0-.66-3,4.58,4.58,0,0,0-2.23-2,10.24,10.24,0,0,0-4.35-.75,19,19,0,0,0-5.51.83,15.66,15.66,0,0,0-4.79,2.37l-3.41-9.26a29.52,29.52,0,0,1,7.83-3.29,33,33,0,0,1,8.32-1.09,24.5,24.5,0,0,1,9.26,1.65,13.71,13.71,0,0,1,6.42,5.19A16.23,16.23,0,0,1,755,35.46v13.3A8.28,8.28,0,0,1,746.69,57h-3.55V53.49a10.81,10.81,0,0,1-4.6,3.39A17.68,17.68,0,0,1,731.79,58.08Z"/><path class="cls-2" d="M778.39,58.08a18.09,18.09,0,0,1-9.13-2.31,16.62,16.62,0,0,1-6.41-6.62,21,21,0,0,1-2.35-10.21,21,21,0,0,1,1.34-7.59,18.31,18.31,0,0,1,3.78-6.07,17.11,17.11,0,0,1,5.76-4,18.1,18.1,0,0,1,7.29-1.44,16.43,16.43,0,0,1,6.8,1.41,15.42,15.42,0,0,1,5.66,4.5l-3.27,3.2V20.84A13.92,13.92,0,0,1,801.78,6.92h0V57H790V47.22l1.88,3.13A10.85,10.85,0,0,1,786.9,56,16.61,16.61,0,0,1,778.39,58.08ZM781,46.25a7.12,7.12,0,0,0,3.53-.89A6.54,6.54,0,0,0,787,42.84a7.87,7.87,0,0,0,.92-3.9A7.86,7.86,0,0,0,787,35a6.29,6.29,0,0,0-2.49-2.52,7.59,7.59,0,0,0-7.13,0A6.29,6.29,0,0,0,774.91,35a8,8,0,0,0-.9,3.9,7.76,7.76,0,0,0,.92,3.9,6.44,6.44,0,0,0,2.5,2.52A7.16,7.16,0,0,0,781,46.25Z"/><path class="cls-2" d="M820.71,58.08a14.47,14.47,0,0,1-6.37-1.39,11.42,11.42,0,0,1-4.63-4A11.24,11.24,0,0,1,808,46.32a10.18,10.18,0,0,1,1.59-5.68,11.51,11.51,0,0,1,4.68-4,23.51,23.51,0,0,1,7.67-2.11,53.29,53.29,0,0,1,10.56-.07l.07,8.29a28,28,0,0,0-4.52-.65,16.58,16.58,0,0,0-3.83.19,5.94,5.94,0,0,0-2.64,1.1,2.56,2.56,0,0,0-1,2.11,2.3,2.3,0,0,0,1.15,2.12,5.75,5.75,0,0,0,3,.7,7.76,7.76,0,0,0,3-.56,4.72,4.72,0,0,0,2.14-1.72,5.17,5.17,0,0,0,.81-3V35.67a6.51,6.51,0,0,0-.67-3,4.6,4.6,0,0,0-2.22-2,10.31,10.31,0,0,0-4.35-.75,19,19,0,0,0-5.52.83,15.66,15.66,0,0,0-4.79,2.37l-3.41-9.26a29.8,29.8,0,0,1,7.83-3.29,33,33,0,0,1,8.32-1.09,24.46,24.46,0,0,1,9.26,1.65,13.66,13.66,0,0,1,6.42,5.19,16.23,16.23,0,0,1,2.35,9.17V57H832.06V53.49a10.81,10.81,0,0,1-4.6,3.39A17.68,17.68,0,0,1,820.71,58.08Z"/><path class="cls-2" d="M531.84,83.76a7.41,7.41,0,0,1-2.29-.36,5.18,5.18,0,0,1-1.88-1L529,80.29a2.8,2.8,0,0,0,.77.59,5.87,5.87,0,0,0,1,.39,4.47,4.47,0,0,0,1.05.14,2.47,2.47,0,0,0,.93-.16.51.51,0,0,0,.36-.46.54.54,0,0,0-.28-.47,3.59,3.59,0,0,0-1-.38l-.72-.2a4.6,4.6,0,0,1-2.29-1.21,2.8,2.8,0,0,1-.39-3.07,3,3,0,0,1,.81-1,3.84,3.84,0,0,1,1.23-.67,4.72,4.72,0,0,1,1.53-.24,6.67,6.67,0,0,1,2.22.35,4,4,0,0,1,1.63.95l-1.35,2a2.7,2.7,0,0,0-.63-.51A3.77,3.77,0,0,0,533,76a3.31,3.31,0,0,0-.93-.13,2.08,2.08,0,0,0-.65.09,1.06,1.06,0,0,0-.42.24.46.46,0,0,0-.15.34.37.37,0,0,0,.12.29,1.34,1.34,0,0,0,.42.22l.79.25.71.21a5.45,5.45,0,0,1,2.3,1.16,2.35,2.35,0,0,1,.7,1.77,3,3,0,0,1-.5,1.72A3.33,3.33,0,0,1,534,83.34,5.06,5.06,0,0,1,531.84,83.76Z"/><path class="cls-2" d="M544.79,83.76a5.63,5.63,0,0,1-2.12-.39A5.27,5.27,0,0,1,541,82.29a4.9,4.9,0,0,1-1.1-1.62,5.59,5.59,0,0,1,0-4A4.9,4.9,0,0,1,541,75a5.27,5.27,0,0,1,1.68-1.08,5.86,5.86,0,0,1,4.23,0A5,5,0,0,1,548.57,75a4.92,4.92,0,0,1,1.11,1.63,5.09,5.09,0,0,1,.39,2,5.23,5.23,0,0,1-.39,2,4.78,4.78,0,0,1-1.11,1.62,5.11,5.11,0,0,1-1.67,1.08A5.58,5.58,0,0,1,544.79,83.76Zm0-2.65a2.33,2.33,0,0,0,.93-.17,2,2,0,0,0,.73-.49,2.22,2.22,0,0,0,.48-.78,3,3,0,0,0,.17-1,2.7,2.7,0,0,0-.3-1.31,2,2,0,0,0-.81-.86,2.38,2.38,0,0,0-1.2-.3,2.58,2.58,0,0,0-.94.17,2.16,2.16,0,0,0-.73.5,2.24,2.24,0,0,0-.48.77,3.05,3.05,0,0,0-.16,1,2.72,2.72,0,0,0,.29,1.31,2.1,2.1,0,0,0,.82.85A2.32,2.32,0,0,0,544.79,81.11Z"/><path class="cls-2" d="M554.41,83.55V73.74h2.83V81H561v2.58Z"/><path class="cls-2" d="M569.4,83.76a4.79,4.79,0,0,1-2.4-.55,3.62,3.62,0,0,1-1.46-1.54,5,5,0,0,1-.5-2.29V73.74h2.83v5.79a1.59,1.59,0,0,0,.39,1.19,1.58,1.58,0,0,0,1.14.39,1.53,1.53,0,0,0,1.12-.39,1.59,1.59,0,0,0,.39-1.19V73.74h2.84v5.64a5,5,0,0,1-.49,2.28,3.7,3.7,0,0,1-1.47,1.54A4.67,4.67,0,0,1,569.4,83.76Z"/><path class="cls-2" d="M583.24,83.76a5.66,5.66,0,0,1-2.7-.62,4.47,4.47,0,0,1-1.83-1.75,5.3,5.3,0,0,1-.66-2.7,5.63,5.63,0,0,1,.38-2.09A4.81,4.81,0,0,1,579.52,75a4.91,4.91,0,0,1,1.67-1.06,5.72,5.72,0,0,1,2.1-.38,5.9,5.9,0,0,1,2.14.33,5.46,5.46,0,0,1,1.56.94l-1.39,2.32a2.45,2.45,0,0,0-.92-.62,3.34,3.34,0,0,0-1.21-.21,3,3,0,0,0-1.05.17,2.13,2.13,0,0,0-.77.47,2,2,0,0,0-.47.74,2.76,2.76,0,0,0-.16,1,2.61,2.61,0,0,0,.29,1.26,2,2,0,0,0,.85.81,2.89,2.89,0,0,0,1.34.28,4.21,4.21,0,0,0,2.41-.78l1.29,2.36a5.87,5.87,0,0,1-1.64.85A7.25,7.25,0,0,1,583.24,83.76Zm-.46,2.94a3.9,3.9,0,0,1-1.1-.15,3.72,3.72,0,0,1-.87-.38l.46-1.16a1.57,1.57,0,0,0,.7.32,3,3,0,0,0,.71.1,1.33,1.33,0,0,0,.41-.05c.1,0,.14-.08.14-.13s-.1-.15-.29-.18a1.62,1.62,0,0,0-.62,0l-.5-.94.39-.87h1.43l-.21.65a2.5,2.5,0,0,1,1.25.41,1.14,1.14,0,0,1,.11,1.74,2.12,2.12,0,0,1-.89.48A4.15,4.15,0,0,1,582.78,86.7Z"/><path class="cls-2" d="M595.65,83.76a5.54,5.54,0,0,1-2.11-.39,5.06,5.06,0,0,1-1.68-1.08,4.75,4.75,0,0,1-1.1-1.62,5.45,5.45,0,0,1,0-4,4.75,4.75,0,0,1,1.1-1.62,5.06,5.06,0,0,1,1.68-1.08,5.83,5.83,0,0,1,4.22,0A5.13,5.13,0,0,1,599.44,75a5,5,0,0,1,1.49,3.63,5.23,5.23,0,0,1-.39,2,4.9,4.9,0,0,1-1.1,1.62,5.27,5.27,0,0,1-1.68,1.08A5.54,5.54,0,0,1,595.65,83.76ZM593.4,73.24l-1.06-1.18a2.82,2.82,0,0,1,.88-1.22,2,2,0,0,1,1.24-.42,2.25,2.25,0,0,1,.92.18l.79.36a1.73,1.73,0,0,0,.76.18.93.93,0,0,0,.58-.2,1.4,1.4,0,0,0,.41-.67l1,1.19a1.81,1.81,0,0,1-.68,1.2,2.09,2.09,0,0,1-1.27.4,2.49,2.49,0,0,1-1-.18c-.3-.11-.58-.23-.84-.35a2,2,0,0,0-.76-.17,1,1,0,0,0-.61.21A1.36,1.36,0,0,0,593.4,73.24Zm2.25,7.87a2.42,2.42,0,0,0,.94-.17,2.13,2.13,0,0,0,.73-.49,2.36,2.36,0,0,0,.47-.78,2.73,2.73,0,0,0,.17-1,2.81,2.81,0,0,0-.29-1.31,2.13,2.13,0,0,0-.82-.86,2.38,2.38,0,0,0-1.2-.3,2.52,2.52,0,0,0-.93.17,2.11,2.11,0,0,0-.74.5,2.21,2.21,0,0,0-.47.77,3,3,0,0,0-.17,1,2.84,2.84,0,0,0,.29,1.31,2.1,2.1,0,0,0,.82.85A2.38,2.38,0,0,0,595.65,81.11Z"/><path class="cls-2" d="M605.28,83.55V73.74h7.27v2.44h-4.44v1.28h3.64v2.22h-3.64v1.41h4.49v2.46Z"/><path class="cls-2" d="M620.77,83.76a7.41,7.41,0,0,1-2.29-.36,5.18,5.18,0,0,1-1.88-1l1.31-2.08a2.66,2.66,0,0,0,.77.59,5.87,5.87,0,0,0,1,.39,4.47,4.47,0,0,0,1,.14,2.5,2.5,0,0,0,.93-.16.51.51,0,0,0,.36-.46.54.54,0,0,0-.28-.47,3.59,3.59,0,0,0-1-.38l-.73-.2a4.61,4.61,0,0,1-2.28-1.21A2.64,2.64,0,0,1,617,76.7a2.76,2.76,0,0,1,.29-1.24,3.14,3.14,0,0,1,.82-1,3.84,3.84,0,0,1,1.23-.67,4.72,4.72,0,0,1,1.53-.24,6.71,6.71,0,0,1,2.22.35,4,4,0,0,1,1.63.95l-1.36,2a2.34,2.34,0,0,0-.63-.51,3.69,3.69,0,0,0-.84-.34,3.31,3.31,0,0,0-.93-.13,2.08,2.08,0,0,0-.65.09,1.06,1.06,0,0,0-.42.24.46.46,0,0,0-.15.34.37.37,0,0,0,.12.29,1.34,1.34,0,0,0,.42.22l.79.25.71.21a5.45,5.45,0,0,1,2.3,1.16,2.35,2.35,0,0,1,.7,1.77,3,3,0,0,1-.5,1.72,3.33,3.33,0,0,1-1.42,1.15A5.06,5.06,0,0,1,620.77,83.76Z"/><path class="cls-2" d="M634.92,83.55V73.74h2.83v9.81Z"/><path class="cls-2" d="M642.7,83.55V73.74h2.71l3.55,6-1.14,0,3.34-6h2.72v9.81h-2.74l.06-6.25.49.18-2.49,4.4h-1.82l-2.64-4.4.49-.18.06,6.25Z"/><path class="cls-2" d="M663.5,83.76a5.58,5.58,0,0,1-2.11-.39,5.06,5.06,0,0,1-1.68-1.08,4.75,4.75,0,0,1-1.1-1.62,5.45,5.45,0,0,1,0-4,4.75,4.75,0,0,1,1.1-1.62,5.06,5.06,0,0,1,1.68-1.08,5.83,5.83,0,0,1,4.22,0,5,5,0,0,1,2.78,2.72,5.09,5.09,0,0,1,.39,2,5.23,5.23,0,0,1-.39,2,4.9,4.9,0,0,1-1.1,1.62,5.16,5.16,0,0,1-1.68,1.08A5.54,5.54,0,0,1,663.5,83.76Zm0-2.65a2.42,2.42,0,0,0,.94-.17,2.13,2.13,0,0,0,.73-.49,2.36,2.36,0,0,0,.47-.78,2.73,2.73,0,0,0,.17-1,2.81,2.81,0,0,0-.29-1.31,2.13,2.13,0,0,0-.82-.86,2.38,2.38,0,0,0-1.2-.3,2.52,2.52,0,0,0-.93.17,2.11,2.11,0,0,0-.74.5,2.21,2.21,0,0,0-.47.77,3,3,0,0,0-.17,1,2.84,2.84,0,0,0,.29,1.31,2.1,2.1,0,0,0,.82.85A2.38,2.38,0,0,0,663.5,81.11Z"/><path class="cls-2" d="M673.13,83.55V73.74h4.09a4.3,4.3,0,0,1,2.47.63,2.12,2.12,0,0,1,.92,1.87,2,2,0,0,1-.16.79,2.28,2.28,0,0,1-.45.63,3,3,0,0,1-.67.47A2.57,2.57,0,0,1,681,80.6a2.77,2.77,0,0,1-.46,1.58,2.89,2.89,0,0,1-1.3,1,5.15,5.15,0,0,1-2,.36Zm2.83-5.9h.89a1.15,1.15,0,0,0,.55-.11.78.78,0,0,0,.35-.32,1.08,1.08,0,0,0,.13-.52.87.87,0,0,0-.28-.68,1.15,1.15,0,0,0-.79-.24H676Zm0,3.87h.92a1.35,1.35,0,0,0,.89-.26.9.9,0,0,0,.3-.73,1,1,0,0,0-.27-.73,1.06,1.06,0,0,0-.78-.27H676Z"/><path class="cls-2" d="M685.37,83.55V73.74h2.83v9.81Z"/><path class="cls-2" d="M693.15,83.55V73.74H696V81h3.71v2.58Z"/><path class="cls-2" d="M704,83.55V73.74h2.83v9.81Z"/><path class="cls-2" d="M710.64,83.55l3.58-9.81h3.36l3.56,9.81h-3.2l-.54-1.75h-3.1l-.54,1.75ZM714.43,73l1.41-2.48h2.9L717.06,73Zm.47,6.47h1.88l-.92-2.8Z"/><path class="cls-2" d="M725,83.55V73.74h4.16a5.15,5.15,0,0,1,2,.36,3,3,0,0,1,1.33,1A2.82,2.82,0,0,1,733,76.8a2.91,2.91,0,0,1-.25,1.25A2.69,2.69,0,0,1,732,79a3.22,3.22,0,0,1-.93.58l2.43,4H730.2l-1.83-3.38h-.55v3.38Zm2.83-5.6h1a1.68,1.68,0,0,0,.91-.21,1,1,0,0,0,0-1.49,1.66,1.66,0,0,0-.9-.21h-1Z"/><path class="cls-2" d="M737.63,83.55V73.74h2.83v9.81Z"/><path class="cls-2" d="M744.31,83.55l3.57-9.81h3.37l3.55,9.81h-3.19l-.55-1.75H748l-.55,1.75Zm4.26-4.09h1.88l-.93-2.8Z"/><path class="cls-2" d="M762.24,83.76A7.35,7.35,0,0,1,760,83.4a5.1,5.1,0,0,1-1.88-1l1.31-2.08a2.53,2.53,0,0,0,.77.59,5.49,5.49,0,0,0,1,.39,4.47,4.47,0,0,0,1,.14,2.43,2.43,0,0,0,.93-.16.51.51,0,0,0,.36-.46.54.54,0,0,0-.28-.47,3.5,3.5,0,0,0-1-.38l-.73-.2a4.6,4.6,0,0,1-2.29-1.21,2.68,2.68,0,0,1-.68-1.83,2.63,2.63,0,0,1,.29-1.24,3,3,0,0,1,.81-1,3.84,3.84,0,0,1,1.23-.67,4.72,4.72,0,0,1,1.53-.24,6.63,6.63,0,0,1,2.22.35,4.16,4.16,0,0,1,1.64.95l-1.36,2a2.7,2.7,0,0,0-.63-.51,3.77,3.77,0,0,0-.85-.34,3.31,3.31,0,0,0-.93-.13,2.13,2.13,0,0,0-.65.09,1.06,1.06,0,0,0-.42.24.46.46,0,0,0-.15.34.37.37,0,0,0,.12.29,1.34,1.34,0,0,0,.42.22l.79.25.71.21a5.39,5.39,0,0,1,2.3,1.16,2.35,2.35,0,0,1,.7,1.77,3,3,0,0,1-.5,1.72,3.33,3.33,0,0,1-1.42,1.15A5,5,0,0,1,762.24,83.76Z"/><path class="cls-3" d="M101.2,30.75,92.63,52.1h11.86l-3.25-21.44Zm-45.39,49L91,7.4h26.57l14.82,72.35H109l-1.72-9.64H84.67l-5.21,9.64Zm87.58,0L153.57,7.4h23.51L166.9,79.75ZM299.72,30.66l-8.6,21.44H303l-3.26-21.44ZM254.3,79.75,289.45,7.4H316l14.82,72.35H307.5l-1.71-9.64H283.15L278,79.75Zm-52-33.83h29.45L252,79.35H222.51L202.34,45.92Z"/><path class="cls-4" d="M205.4,40.79h30.44L262.28,7.5H231.83L205.4,40.79ZM175,79.55H205.4l26.43-33.69H201.39Z"/><path class="cls-3" d="M185.93,7.1h28.41l19.47,33.69H205.4L185.93,7.1ZM56.51,10,54.25,31.27c-8.66-11.95-28.74-3.7-30.32,11.18-2,18.9,17.32,23.31,27.84,12.18L49.5,76a50.23,50.23,0,0,1-9.24,3.55,37.65,37.65,0,0,1-9,1.31A35.23,35.23,0,0,1,21,79.63a24.9,24.9,0,0,1-8.32-4A29.56,29.56,0,0,1,2.36,62.35,38.29,38.29,0,0,1,.28,44.08,44.82,44.82,0,0,1,4.42,29.13a43.45,43.45,0,0,1,9-12.33,38.27,38.27,0,0,1,11.84-8A37.16,37.16,0,0,1,39.2,5.89,34.66,34.66,0,0,1,48,6.81,39.42,39.42,0,0,1,56.51,10Z"/></g></g></svg>