<svg xmlns="http://www.w3.org/2000/svg" viewBox="0 0 2622.99 773.84"><defs><style>.cls-1{fill:#eaeaea;}.cls-2{fill:#fff;}</style></defs><g id="Camada_2" data-name="Camada 2"><g id="Camada_1-2" data-name="Camada 1"><path class="cls-1" d="M944.73,262.37H727.46V0h54.83V215.2H944.73Z"/><path class="cls-1" d="M1155.33,59.83h16.37V261.57h-53l13.64-73.49L1122,216.71c-5.92,16.49-17.81,30.21-33.45,37-1,.42-1.94.81-2.92,1.18a104.39,104.39,0,0,1-37.2,6.68q-21.92,0-39.81-6.24t-29.4-19.05q-9.75-10.87-11.92-22.36t-2.18-37.48V59.83h55.89V180.56c0,10.45,11.36,38.65,46,38.84,16.29.08,28.66-4.49,37.09-13.45s12.65-21.77,12.65-38.39V59.83h38.53Z"/><path class="cls-1" d="M1408.54,184.54q-5,28.08-22,45.3-29.57,32.53-85.2,32.53-56.76,0-85.2-32.53Q1192,205.58,1192,159.69t24.1-70.16q28.44-32.39,85.2-32.38,55.64,0,85.2,32.38,16.92,17,22,44.74h-50a49.19,49.19,0,0,0-12-18.24q-15.88-15.3-45.17-15.3T1256.19,116q-15.95,15.3-15.94,41.36T1256.13,199q15.88,15.53,45.17,15.52T1346.47,199a49.74,49.74,0,0,0,10.25-14.41Z"/><path class="cls-1" d="M1617.61,99.85c6,10.13,7.11,22.5,7.11,34.33V264.36h-57.33l9.56-56.91c-.7,1.39-1.38,2.76-2.11,4.2-34.3,68.29-172.12,77.31-155-4.51,11.56-55.15,94.37-69.22,147.11-72.54-8-61.67-122.46-17.87-122.46-17.87l.15-42.47S1578.52,33.58,1617.61,99.85Zm-50.22,96.05c0-11.37,0-23,0-33.84-26.79,5.06-74.2,6.8-81.81,37.62C1478.86,227,1540.26,241.9,1567.39,195.9Z"/><path class="cls-1" d="M1843.44,197.51c17.2,76.78-187.22,94.79-199.56,5.55h50.54c16.25,26.32,91.2,30.17,91.2,2.51,0-40-125-14.48-135.71-80.58-13.1-80.95,177.47-90.79,187.5-.86h-50.74c-3.69-28.8-79.55-36.71-79.55-8.23C1707.12,147.62,1829.86,136.94,1843.44,197.51Z"/><path class="cls-1" d="M971,359.78h57.35L934.72,622.15H820.29L727.46,359.78h59.46l91.17,254.79Z"/><path class="cls-1" d="M1122.43,522.14l-65.16-.1c.88,15.19,6.08,27.52,15.7,36.91q15.88,15.52,45.17,15.52T1163.31,559c.93-.91,1.77-1.87,2.61-2.84h56.78q-5.94,20.22-19.36,33.73-29.56,32.53-85.2,32.53-56.76,0-85.2-32.53-24.11-24.26-24.11-70.15t24.11-70.16q28.44-32.38,85.2-32.38,55.63,0,85.2,32.38,24.11,24.27,24.1,70.16c0,.58,0,1.14,0,1.72l0,.11.07.78h-.1l-48.4-.07Zm55.28-19.33a50.53,50.53,0,0,0-14.4-26.78q-15.88-15.3-45.17-15.3T1073,476a50.48,50.48,0,0,0-14.46,26.78Z"/><path class="cls-1" d="M1374.66,419.83a140.2,140.2,0,0,1,15.44.84v54.78c-7.24-7.42-18.2-13.36-34-13.44-16.3-.09-28.66,4.48-37.09,13.45s-12.65,21.76-12.65,38.38V621.57h-54.9V419.83h53l-13.65,73.49,10.28-28.63c5.92-16.49,17.82-30.21,33.46-37,1-.42,1.93-.81,2.91-1.18A104.48,104.48,0,0,1,1374.66,419.83Z"/><path class="cls-1" d="M1488.46,363.69,1468,398.94H1418.4l32.34-35.25Zm-70.06,55.95H1468V622.37H1418.4Z"/><path class="cls-1" d="M1694.12,557.51c17.2,76.78-187.21,94.79-199.56,5.55h50.54c16.25,26.32,91.2,30.17,91.2,2.51,0-40-125-14.48-135.7-80.58-13.11-80.95,177.46-90.79,187.5-.86h-50.74c-3.7-28.8-79.55-36.71-79.55-8.23C1557.81,507.62,1680.55,496.94,1694.12,557.51Z"/><path class="cls-1" d="M1906.52,557.51c17.2,76.78-187.21,94.79-199.56,5.55h50.54c16.25,26.32,91.2,30.17,91.2,2.51,0-40-125-14.48-135.71-80.58-13.1-80.95,177.47-90.79,187.51-.86h-50.75c-3.69-28.8-79.54-36.71-79.54-8.23C1770.21,507.62,1893,496.94,1906.52,557.51Z"/><path class="cls-1" d="M1991.31,376.24v22.7h-49.55v-22.7Zm-49.55,43.4h49.55V622.37h-49.55Z"/><path class="cls-1" d="M2380.54,467.48q2.17,11.47,2.17,37.48V621.57h-55.89V500.84c0-10.45-11.35-38.65-46-38.83-16.3-.09-28.66,4.48-37.09,13.45-5.69,6-9.41,13.85-11.26,23.37q0,3,0,6.13V621.57h-55.89V500.84c0-10.45-11.35-38.65-46-38.83-16.29-.09-28.66,4.48-37.09,13.45s-12.65,21.76-12.65,38.38V621.57H2026V419.83h53l-13.65,73.49,10.28-28.63c5.92-16.49,17.82-30.21,33.46-37,1-.42,1.93-.81,2.91-1.18a104.48,104.48,0,0,1,37.21-6.68q21.91,0,39.81,6.24t29.39,19.06a52.36,52.36,0,0,1,9.5,14.48c6.4-14.2,17.38-25.84,31.39-31.92,1-.42,1.93-.81,2.91-1.18a104.48,104.48,0,0,1,37.21-6.68q21.9,0,39.81,6.24t29.39,19.06Q2378.38,456,2380.54,467.48Z"/><path class="cls-1" d="M2623,519.69q0,45.9-24.11,70.15-29.57,32.53-85.2,32.53-56.74,0-85.2-32.53-24.11-24.26-24.1-70.15t24.1-70.16q28.45-32.38,85.2-32.38,55.64,0,85.2,32.38Q2623,473.8,2623,519.69Zm-48.26-2.3q0-26.06-15.88-41.36t-45.17-15.3q-29.16,0-45.11,15.3t-15.94,41.36q0,26,15.88,41.56t45.17,15.52q29.3,0,45.17-15.52T2574.73,517.39Z"/><path class="cls-2" d="M2085.47,732.5q6.47,0,10,3.3a10.59,10.59,0,0,1,2.22,3h8.6a15.8,15.8,0,0,0-4.1-7.81q-5.79-6.35-16.69-6.34-11.11,0-16.68,6.34-4.73,4.75-4.72,13.74t4.72,13.74q5.57,6.36,16.68,6.37,10.91,0,16.69-6.37a15.77,15.77,0,0,0,4.09-7.78h-8.6a10.69,10.69,0,0,1-2.21,3q-3.51,3.33-10,3.34t-10-3.34a11.8,11.8,0,0,1-3.51-9,11.59,11.59,0,0,1,3.52-8.9Q2079,732.5,2085.47,732.5Z"/><path class="cls-2" d="M2146,737.25q0-6.48-3.53-9.58t-9.46-3.09h-22v40h8.3V750.19h9.93a4.82,4.82,0,0,1,4.42,2.92,4.4,4.4,0,0,1,.31,1.13l1.74,10.39h9.63s-.84-13.84-7.89-15.84c.5-.3,3.19-.4,5-1.52C2145.09,745.65,2146,742,2146,737.25Zm-9.88,4.61a6.39,6.39,0,0,1-4.45,1.44h-12.32V731.53h12.32a6.77,6.77,0,0,1,4.45,1.32q1.57,1.33,1.58,4.45A5.9,5.9,0,0,1,2136.13,741.86Z"/><polygon class="cls-2" points="2158.99 747.1 2183.2 747.1 2183.2 740.15 2158.99 740.15 2158.99 731.66 2184.94 731.66 2184.94 724.58 2150.83 724.58 2150.83 764.56 2185.92 764.56 2185.92 757.38 2158.99 757.38 2158.99 747.1"/><path class="cls-2" d="M2212.14,732.5q6.46,0,10,3.3a10.59,10.59,0,0,1,2.22,3h8.6a15.8,15.8,0,0,0-4.1-7.81q-5.79-6.35-16.69-6.34-11.11,0-16.69,6.34-4.71,4.75-4.71,13.74t4.71,13.74q5.58,6.36,16.69,6.37,10.89,0,16.69-6.37a15.86,15.86,0,0,0,4.09-7.78h-8.6a10.89,10.89,0,0,1-2.21,3q-3.51,3.33-10,3.34t-10-3.34a11.83,11.83,0,0,1-3.5-9,11.59,11.59,0,0,1,3.52-8.9Q2205.7,732.5,2212.14,732.5Z"/><rect class="cls-2" x="2237.73" y="724.58" width="8.3" height="39.98"/><path class="cls-2" d="M2286.23,725.91a6.91,6.91,0,0,1-1.65,2.91,7.94,7.94,0,0,1-4.12,2.12,10.1,10.1,0,0,1-1.1.18v5.75h5.6v28h8.61V724.29h-7A6.48,6.48,0,0,1,2286.23,725.91Z"/><path class="cls-2" d="M2330.76,741.63a16.52,16.52,0,0,0-10.92-3.55,18,18,0,0,0-5.53.79,11.15,11.15,0,0,0-4.24,2.49,21,21,0,0,1,1.52-6.88,7,7,0,0,1,6.83-4.23,6,6,0,0,1,4.8,1.85,3.4,3.4,0,0,1,.93,2.08h9.8a10,10,0,0,0-4.66-7.46q-4.14-2.81-11.11-2.81a18.32,18.32,0,0,0-8.3,1.74,15.58,15.58,0,0,0-5.61,4.58,19.18,19.18,0,0,0-3.35,8.34,45.19,45.19,0,0,0-.48,7.32q0,7.67,3.48,12.52,4.48,6.2,13.95,6.2,8.8,0,13-4.2a13.36,13.36,0,0,0,4.17-9.7A11.31,11.31,0,0,0,2330.76,741.63Zm-7.59,14.76a6.88,6.88,0,0,1-5.16,1.93,7.82,7.82,0,0,1-5.53-2,6.72,6.72,0,0,1-2.17-5.18,6.16,6.16,0,0,1,2.9-5.69,8.34,8.34,0,0,1,4.45-1.19,7.81,7.81,0,0,1,5.25,1.83,6.55,6.55,0,0,1,2.14,5.27A6.93,6.93,0,0,1,2323.17,756.39Z"/><path class="cls-2" d="M2341.25,731.74h25.95q-3.81,2.79-9.45,9.87-8.74,11.4-9.21,22h10.64a28.53,28.53,0,0,1,1.76-8.67,45.88,45.88,0,0,1,4-8.94,52.37,52.37,0,0,1,6.88-9,55.17,55.17,0,0,1,6.4-6.08v-6h-36.79Z"/><polygon class="cls-2" points="2411.31 749.09 2396.44 749.09 2415 724.54 2404.22 724.54 2385.86 748.38 2385.66 756.04 2411.21 756.04 2411.31 764.42 2420.12 764.42 2420.12 732.18 2411.31 737.87 2411.31 749.09"/><path class="cls-2" d="M2457.29,741.63a16.52,16.52,0,0,0-10.92-3.55,17.93,17.93,0,0,0-5.52.79,11.11,11.11,0,0,0-4.25,2.49,21.24,21.24,0,0,1,1.52-6.88,7,7,0,0,1,6.83-4.23,6,6,0,0,1,4.8,1.85,3.4,3.4,0,0,1,.93,2.08h9.81a10.07,10.07,0,0,0-4.66-7.46q-4.15-2.81-11.12-2.81a18.32,18.32,0,0,0-8.3,1.74,15.58,15.58,0,0,0-5.61,4.58,19.18,19.18,0,0,0-3.35,8.34,45.19,45.19,0,0,0-.48,7.32q0,7.67,3.49,12.52,4.48,6.2,13.94,6.2,8.8,0,13-4.2a13.37,13.37,0,0,0,4.18-9.7A11.32,11.32,0,0,0,2457.29,741.63Zm-7.59,14.76a6.88,6.88,0,0,1-5.16,1.93,7.81,7.81,0,0,1-5.52-2,6.73,6.73,0,0,1-2.18-5.18,6.16,6.16,0,0,1,2.9-5.69,8.34,8.34,0,0,1,4.45-1.19,7.81,7.81,0,0,1,5.25,1.83,6.55,6.55,0,0,1,2.14,5.27A6.93,6.93,0,0,1,2449.7,756.39Z"/><rect class="cls-2" x="2466.47" y="748.28" width="14.58" height="6.44"/><polygon class="cls-2" points="2516.64 731.66 2516.64 724.64 2483.34 724.64 2483.34 764.56 2491.64 764.56 2491.64 747.8 2514.14 747.8 2514.14 740.86 2491.64 740.86 2491.64 731.66 2516.64 731.66"/><path class="cls-2" d="M734.09,763.8q-6.63-6.67-6.63-19.3t6.63-19.3q7.83-8.91,23.44-8.91,15.3,0,23.44,8.91a22.22,22.22,0,0,1,5.76,11H774.65a14.74,14.74,0,0,0-3.12-4.18q-4.92-4.63-14-4.63t-14,4.63q-4.93,4.62-4.94,12.5t4.92,12.58q4.92,4.7,14,4.69t14-4.69a15.28,15.28,0,0,0,3.11-4.2h12.08A22.2,22.2,0,0,1,781,763.8q-8.15,8.94-23.44,8.94Q741.92,772.74,734.09,763.8Z"/><path class="cls-2" d="M836.37,772.74q-15.6,0-23.43-8.94-6.63-6.67-6.63-19.3t6.63-19.3q7.83-8.91,23.43-8.91,15.32,0,23.44,8.91,6.63,6.67,6.63,19.3t-6.63,19.3Q851.68,772.74,836.37,772.74Zm18.92-28.25q0-7.87-4.92-12.5t-14-4.63q-9,0-14,4.63t-4.94,12.5q0,7.89,4.92,12.58t14,4.69q9.09,0,14-4.69T855.29,744.49Z"/><path class="cls-2" d="M897.65,772.39H886V716.23h30.84q8.34,0,13.3,4.34t5,13.45c0,6.63-1.29,11.8-4.93,14.06-2.54,1.58-6.32,1.72-7,2.14,9.91,2.8,11.09,22.24,11.09,22.24H920.69l-2.44-14.59a7.21,7.21,0,0,0-.44-1.59,6.79,6.79,0,0,0-6.22-4.09H897.65Zm0-29.87H915a9,9,0,0,0,6.25-2c1.48-1.35,2.23-3.48,2.23-6.4s-.75-5-2.23-6.25A9.49,9.49,0,0,0,915,726h-17.3Z"/><path class="cls-2" d="M966.35,772.39H954.69V716.23h30.84q8.34,0,13.3,4.34t4.95,13.45c0,6.63-1.29,11.8-4.93,14.06-2.54,1.58-6.32,1.72-7,2.14,9.91,2.8,11.09,22.24,11.09,22.24H989.39L987,757.87a6.7,6.7,0,0,0-.44-1.59,6.78,6.78,0,0,0-6.22-4.09H966.35Zm0-29.87h17.3a9,9,0,0,0,6.25-2c1.48-1.35,2.23-3.48,2.23-6.4s-.75-5-2.23-6.25a9.49,9.49,0,0,0-6.25-1.87h-17.3Z"/><path class="cls-2" d="M1072.68,772.39h-49.29V716.23h47.91v9.94h-36.44V738.1h34v9.75h-34v14.44h37.82Z"/><path class="cls-2" d="M1149,726.17h-22.41v46.22h-11.81V726.17h-22.49v-9.94H1149Z"/><path class="cls-2" d="M1198.62,772.74q-15.6,0-23.43-8.94-6.63-6.67-6.63-19.3t6.63-19.3q7.83-8.91,23.43-8.91,15.32,0,23.44,8.91,6.63,6.67,6.63,19.3t-6.63,19.3Q1213.93,772.74,1198.62,772.74Zm18.92-28.25q0-7.87-4.92-12.5t-14-4.63q-9,0-14,4.63t-4.94,12.5q0,7.89,4.92,12.58t14,4.69q9.09,0,14-4.69T1217.54,744.49Z"/><path class="cls-2" d="M1259.9,772.39h-11.66V716.23h30.84q8.34,0,13.3,4.34t4.95,13.45c0,6.63-1.29,11.8-4.93,14.06-2.54,1.58-6.32,1.72-7,2.14,9.91,2.8,11.09,22.24,11.09,22.24h-13.52l-2.44-14.59a7.21,7.21,0,0,0-.44-1.59,6.79,6.79,0,0,0-6.22-4.09H1259.9Zm0-29.87h17.3a9,9,0,0,0,6.25-2c1.48-1.35,2.23-3.48,2.23-6.4s-.75-5-2.23-6.25a9.49,9.49,0,0,0-6.25-1.87h-17.3Z"/><path class="cls-2" d="M1398,772.39h-31V716.23h31a29.57,29.57,0,0,1,8.69,1.22,18.54,18.54,0,0,1,9.57,7.12,25,25,0,0,1,4,9.07,43.62,43.62,0,0,1,1.07,9.3q0,11.19-4.5,19Q1410.76,772.4,1398,772.39Zm-2-9.76q8.32,0,11.6-8.19a28.7,28.7,0,0,0,1.8-10.7c0-5.72-.9-10.1-2.7-13.17S1401.38,726,1396,726h-17.56v36.65Z"/><path class="cls-2" d="M1488.34,772.39h-49.28V716.23H1487v9.94h-36.44V738.1h34v9.75h-34v14.44h37.81Z"/><path class="cls-2" d="M1558.1,716.23h11.65v56.16H1558.1Z"/><path class="cls-2" d="M1636.65,772.39H1614.6l-14.38-47.13c0,1.07,0,2.58,0,4.55s0,3.5,0,4.59v38h-10.94V716.23h19.86l16.41,55.58,14.86-55.58h19.9v56.16h-10.93v-38c0-1.09,0-2.62,0-4.59s0-3.48,0-4.55Z"/><path class="cls-2" d="M1710,772.74q-15.6,0-23.43-8.94-6.63-6.67-6.63-19.3t6.63-19.3q7.83-8.91,23.43-8.91,15.32,0,23.44,8.91,6.63,6.67,6.63,19.3t-6.63,19.3Q1725.33,772.74,1710,772.74Zm18.92-28.25q0-7.87-4.92-12.5t-14-4.63q-9,0-14,4.63t-4.94,12.5q0,7.89,4.92,12.58t14,4.69q9.09,0,14-4.69T1728.94,744.49Z"/><path class="cls-2" d="M1811.77,716.18h12.28l-20,56.16h-24.49l-19.87-56.16h12.72l19.52,54.54Z"/><path class="cls-2" d="M1892.9,772.39h-49.28V716.23h47.91v9.94h-36.44V738.1h34v9.75h-34v14.44h37.81Z"/><path class="cls-2" d="M1912.51,716.23h11.66v56.16h-11.66Z"/><path class="cls-2" d="M1982.39,756.84a4.79,4.79,0,0,0-2.46-4.3c-1.64-1-5.92-1.87-9.48-2.63l-7.76-1.33q-9-2-12.32-4.31-5.67-3.88-5.68-12.15a16.17,16.17,0,0,1,5.56-12.54c3.7-3.32,10.82-5,18-5,6,0,12.79,1.57,17,4.71s6.44,7.69,6.65,13.66h-11.28a8.07,8.07,0,0,0-4.53-7.21c-1.87-.93-5.89-1.4-8.67-1.4-3.1,0-7.26.6-9.1,1.82a5.8,5.8,0,0,0-2.78,5.11,4.8,4.8,0,0,0,2.74,4.49c1.17.67,5.34,1.44,9.14,2.33l11.54,2.32q6.48,1.53,9.71,4.08,5,4,5,11.47a16.1,16.1,0,0,1-6,12.78c-4,3.39-11.25,5.09-18.49,5.09-7.39,0-14.89-1.67-19.13-5s-6.35-7.94-6.35-13.78H1955a11.4,11.4,0,0,0,2.14,5.76c2,2.31,7,3.46,11.68,3.46a34.34,34.34,0,0,0,8.57-.91C1980.71,762.19,1982.39,760,1982.39,756.84Z"/><polygon class="cls-1" points="1723.47 690.09 1717.72 699.96 1703.84 699.96 1712.9 690.09 1723.47 690.09"/><path class="cls-1" d="M564.75,368.83H622.1l-172,396.72H335.7L183.42,372.09h59.45L393.49,758Z"/><path class="cls-1" d="M210.07,15.87,59.45,401.75H0L152.28,8.29H266.71L438.68,405H381.33Z"/></g></g></svg>