<?xml version="1.0" encoding="utf-8"?>
<!-- Generator: Adobe Illustrator 27.2.0, SVG Export Plug-In . SVG Version: 6.00 Build 0)  -->
<svg version="1.1" id="Camada_2" xmlns="http://www.w3.org/2000/svg" xmlns:xlink="http://www.w3.org/1999/xlink" x="0px" y="0px"
	 viewBox="0 0 200 200" style="enable-background:new 0 0 200 200;" xml:space="preserve">
<style type="text/css">
	.st0{fill:#FFFFFF;}
</style>
<g>
	<path class="st0" d="M100,6C64.32,6,35.29,35.03,35.29,70.71v58.58C35.29,164.97,64.32,194,100,194s64.71-29.03,64.71-64.71V70.71
		C164.71,35.03,135.68,6,100,6z M149.72,129.29c0,27.42-22.31,49.72-49.72,49.72s-49.72-22.31-49.72-49.72V70.71
		c0-27.42,22.31-49.72,49.72-49.72s49.72,22.31,49.72,49.72V129.29z"/>
	<path class="st0" d="M118.9,71.18l-10.73,10.73V40.06c0-4.14-3.35-7.49-7.49-7.49s-7.49,3.35-7.49,7.49v41.85L82.46,71.18
		c-2.93-2.93-7.67-2.93-10.6,0c-2.93,2.93-2.93,7.67,0,10.6l23.52,23.52c0,0,0,0,0,0c0.35,0.35,0.74,0.66,1.15,0.94
		c0.03,0.02,0.05,0.03,0.08,0.05c0.38,0.25,0.79,0.46,1.22,0.64c0.03,0.01,0.06,0.02,0.09,0.03c0.42,0.17,0.85,0.3,1.3,0.39
		c0.02,0,0.05,0.01,0.07,0.01c0.45,0.08,0.91,0.13,1.38,0.13s0.93-0.05,1.38-0.13c0.02,0,0.05-0.01,0.07-0.01
		c0.45-0.09,0.88-0.22,1.3-0.39c0.03-0.01,0.06-0.02,0.09-0.03c0.43-0.18,0.83-0.39,1.22-0.64c0.03-0.02,0.05-0.03,0.08-0.05
		c0.41-0.28,0.8-0.59,1.15-0.94c0,0,0,0,0,0l23.52-23.52c2.93-2.93,2.93-7.67,0-10.6C126.57,68.25,121.83,68.25,118.9,71.18z"/>
</g>
</svg>
