<?xml version="1.0" encoding="utf-8"?>
<!-- Generator: Adobe Illustrator 24.1.2, SVG Export Plug-In . SVG Version: 6.00 Build 0)  -->
<svg version="1.1" id="Camada_1" xmlns="http://www.w3.org/2000/svg" xmlns:xlink="http://www.w3.org/1999/xlink" x="0px" y="0px"
	 viewBox="0 0 40 41" style="enable-background:new 0 0 40 41;" xml:space="preserve">
<style type="text/css">
	.st0{fill:#40C351;}
	.st1{fill:#FFFFFF;}
</style>
<path class="st0" d="M20,40L20,40C9.5,40,1,31.5,1,21v-1C1,9.5,9.5,1,20,1l0,0c10.5,0,19,8.5,19,19v1C39,31.5,30.5,40,20,40z"/>
<path class="st1" d="M27.4,12.3c-1-1-2.1-1.7-3.3-2.2c-1.3-0.5-2.6-0.8-4-0.8c-5.7,0-10.3,4.6-10.3,10.3c0,1.8,0.5,3.6,1.4,5.1
	L9.7,30l5.5-1.4c1.5,0.8,3.2,1.3,4.9,1.3l0,0c5.7,0,10.3-4.6,10.3-10.3c0-1.3-0.3-2.7-0.8-3.9C29.1,14.3,28.3,13.2,27.4,12.3z
	 M20.1,28c-1.5,0-3-0.4-4.4-1.2l-0.3-0.2l-3.2,0.8l0.9-3.2L12.8,24c-0.9-1.4-1.3-2.9-1.3-4.5c0-4.7,3.8-8.5,8.6-8.5
	c1.1,0,2.2,0.2,3.3,0.6c1,0.4,2,1.1,2.8,1.9c0.8,0.8,1.4,1.7,1.9,2.8c0.4,1,0.7,2.1,0.6,3.3C28.7,24.2,24.8,28,20.1,28z M24.8,21.7
	c-0.3-0.1-1.5-0.7-1.8-0.8c-0.2-0.1-0.4-0.1-0.6,0.1c-0.2,0.3-0.7,0.8-0.8,1c-0.1,0.2-0.3,0.2-0.6,0.1c-0.3-0.1-1.1-0.4-2.1-1.3
	c-0.8-0.7-1.3-1.5-1.4-1.8s0-0.4,0.1-0.5s0.3-0.3,0.4-0.4s0.2-0.3,0.3-0.4c0.1-0.2,0-0.3,0-0.4c-0.1-0.1-0.6-1.4-0.8-1.9
	c-0.2-0.5-0.4-0.4-0.6-0.4c-0.1,0-0.3,0-0.5,0c-0.1,0-0.3,0-0.4,0.1s-0.2,0.1-0.3,0.2c-0.2,0.3-0.9,0.9-0.9,2.1
	c0,1.3,0.9,2.5,1.1,2.7c0.1,0.2,1.8,2.8,4.4,3.9c0.6,0.3,1.1,0.4,1.5,0.5c0.6,0.2,1.2,0.2,1.6,0.1c0.5-0.1,1.5-0.6,1.7-1.2
	s0.2-1.1,0.1-1.2C25.2,21.8,25,21.8,24.8,21.7z"/>
</svg>
